<?xml version="1.0" encoding="UTF-8" standalone="no"?>
<!-- Generator: Adobe Illustrator 18.0.0, SVG Export Plug-In . SVG Version: 6.00 Build 0)  -->

<svg
   xmlns:dc="http://purl.org/dc/elements/1.1/"
   xmlns:cc="http://creativecommons.org/ns#"
   xmlns:rdf="http://www.w3.org/1999/02/22-rdf-syntax-ns#"
   xmlns:svg="http://www.w3.org/2000/svg"
   xmlns="http://www.w3.org/2000/svg"
   xmlns:xlink="http://www.w3.org/1999/xlink"
   xmlns:sodipodi="http://sodipodi.sourceforge.net/DTD/sodipodi-0.dtd"
   xmlns:inkscape="http://www.inkscape.org/namespaces/inkscape"
   version="1.1"
   id="Layer_1"
   x="0px"
   y="0px"
   viewBox="0 0 295.9 76.099993"
   enable-background="new 0 0 295.9 182.4"
   xml:space="preserve"
   sodipodi:docname="gofarma_white.svg"
   width="295.89999"
   height="76.099991"
   inkscape:version="0.92.4 (5da689c313, 2019-01-14)"><metadata
   id="metadata201"><rdf:RDF><cc:Work
       rdf:about=""><dc:format>image/svg+xml</dc:format><dc:type
         rdf:resource="http://purl.org/dc/dcmitype/StillImage" /><dc:title></dc:title></cc:Work></rdf:RDF></metadata><defs
   id="defs199">
	<defs
   id="defs107">
		<rect
   height="182.39999"
   width="295.89999"
   id="SVGID_1_"
   x="0"
   y="0" />
	</defs>
	<clipPath
   id="SVGID_2_">
		<use
   id="use109"
   overflow="visible"
   xlink:href="#SVGID_1_"
   style="overflow:visible"
   x="0"
   y="0"
   width="100%"
   height="100%" />
	</clipPath>
	

		<defs
   id="defs113">
			<rect
   id="SVGID_3_"
   width="295.89999"
   height="182.39999"
   x="0"
   y="0" />
		</defs>
		<clipPath
   id="SVGID_4_">
			<use
   xlink:href="#SVGID_3_"
   overflow="visible"
   id="use115"
   style="overflow:visible"
   x="0"
   y="0"
   width="100%"
   height="100%" />
		</clipPath>
		
		
		
		
		
		
		
		
		
		
		
		
	</defs><sodipodi:namedview
   pagecolor="#ffffff"
   bordercolor="#666666"
   borderopacity="1"
   objecttolerance="10"
   gridtolerance="10"
   guidetolerance="10"
   inkscape:pageopacity="0"
   inkscape:pageshadow="2"
   inkscape:window-width="1920"
   inkscape:window-height="1001"
   id="namedview197"
   showgrid="false"
   inkscape:zoom="2.5877194"
   inkscape:cx="125.037"
   inkscape:cy="71.531171"
   inkscape:window-x="-9"
   inkscape:window-y="-9"
   inkscape:window-maximized="1"
   inkscape:current-layer="Layer_1" />
<g
   id="g4020"
   style="fill:#ffffff"
   transform="translate(0,-106.3)"><path
     style="fill:#ffffff"
     inkscape:connector-curvature="0"
     id="path178"
     d="m 18.6,172.9 c 1.1,0 2.3,-0.2 3.5,-0.5 1.2,-0.3 2.4,-0.9 3.5,-1.6 1.1,-0.7 2.1,-1.7 2.9,-2.8 0.8,-1.1 1.4,-2.5 1.7,-4 l 0.6,-2.9 c -0.5,0.6 -1,1.2 -1.7,1.7 -0.6,0.6 -1.4,1.1 -2.4,1.5 -1,0.4 -2.1,0.8 -3.4,1.1 -1.3,0.3 -2.9,0.4 -4.8,0.4 -2.5,0 -4.7,-0.5 -6.6,-1.6 -1.9,-1.1 -3.5,-2.5 -4.8,-4.2 -1.3,-1.8 -2.2,-3.8 -2.7,-6.1 -0.5,-2.3 -0.6,-4.7 -0.2,-7.1 0.2,-0.8 0.3,-1.7 0.6,-2.8 0.2,-1.1 0.4,-2 0.6,-2.8 0.6,-2.4 1.5,-4.8 2.7,-7 1.2,-2.2 2.6,-4.2 4.3,-5.8 1.7,-1.7 3.7,-3 6,-4 2.3,-1 4.8,-1.5 7.7,-1.5 1.6,0 3.1,0.2 4.4,0.5 1.3,0.3 2.5,0.7 3.5,1.2 1,0.5 1.8,1 2.4,1.5 0.6,0.6 1.1,1.1 1.4,1.5 l 0.4,-1.8 c 0.1,-0.6 0.4,-1.1 1,-1.5 0.5,-0.4 1.1,-0.6 1.7,-0.6 h 6 c 0.6,0 1,0.2 1.3,0.6 0.3,0.4 0.4,0.9 0.3,1.5 L 40.9,163 c -1.4,6.4 -3.9,11.2 -7.5,14.5 -3.6,3.3 -9,4.9 -16,4.9 -2.5,0 -4.8,-0.4 -7,-1.1 -2.2,-0.7 -4.1,-1.7 -5.7,-2.9 -1.6,-1.2 -2.8,-2.5 -3.7,-4 -0.8,-1.5 -1.2,-3.1 -1,-4.6 0.1,-0.6 0.4,-1.1 0.9,-1.5 0.5,-0.4 1,-0.6 1.6,-0.6 H 8 c 0.7,0 1.3,0.3 1.8,0.8 0.4,0.5 0.8,1 1.1,1.4 0.5,0.9 1.3,1.6 2.3,2.2 1,0.5 2.8,0.8 5.4,0.8 m -3,-30.8 c -0.3,0.8 -0.5,1.5 -0.6,2.2 -0.1,0.7 -0.3,1.4 -0.4,2.2 -0.2,1.7 -0.2,3.1 0.1,4.4 0.3,1.2 0.8,2.2 1.5,3 0.7,0.8 1.6,1.4 2.6,1.7 1,0.3 2.2,0.6 3.5,0.6 2.6,0 4.9,-0.8 7,-2.3 2.1,-1.5 3.6,-3.7 4.5,-6.6 0.3,-0.8 0.5,-1.8 0.8,-3 0.2,-1.2 0.4,-2.2 0.5,-3 0.3,-2.8 -0.2,-4.9 -1.7,-6.5 -1.4,-1.6 -3.4,-2.4 -6,-2.4 -2.6,0 -4.9,0.8 -7.1,2.3 -2,1.5 -3.6,3.9 -4.7,7.4"
     clip-path="url(#SVGID_4_)" /><path
     style="fill:#ffffff"
     inkscape:connector-curvature="0"
     id="path180"
     d="m 73.6,122.9 c 2.7,0 5.2,0.5 7.4,1.4 2.2,1 4.1,2.2 5.6,3.8 1.5,1.6 2.7,3.5 3.4,5.7 0.7,2.2 0.9,4.5 0.5,6.9 -0.1,0.5 -0.1,1.1 -0.3,1.8 -0.1,0.7 -0.3,1.5 -0.4,2.2 -0.2,0.7 -0.3,1.5 -0.5,2.2 -0.2,0.7 -0.3,1.3 -0.5,1.8 -0.7,2.4 -1.7,4.7 -2.8,6.7 -1.1,2.1 -2.6,3.8 -4.4,5.4 -1.8,1.5 -4,2.7 -6.5,3.6 -2.5,0.9 -5.6,1.3 -9,1.3 -2.7,0 -5.2,-0.5 -7.4,-1.4 -2.2,-1 -4.1,-2.2 -5.6,-3.9 -1.5,-1.6 -2.6,-3.5 -3.3,-5.6 -0.7,-2.1 -0.9,-4.4 -0.6,-6.9 0.1,-0.5 0.1,-1.1 0.3,-1.8 0.1,-0.7 0.3,-1.4 0.4,-2.2 0.2,-0.7 0.3,-1.5 0.5,-2.2 0.2,-0.7 0.3,-1.3 0.5,-1.8 0.7,-2.4 1.7,-4.7 2.9,-6.8 1.2,-2.1 2.8,-3.9 4.6,-5.4 1.9,-1.5 4,-2.7 6.5,-3.6 2.6,-0.8 5.5,-1.2 8.7,-1.2 m 6.6,17.8 c 0.2,-1.6 0.1,-3 -0.2,-4.1 -0.4,-1.1 -0.9,-1.9 -1.7,-2.6 -0.8,-0.6 -1.7,-1.1 -2.7,-1.3 -1,-0.2 -2.1,-0.4 -3.2,-0.4 -1.1,0 -2.2,0.1 -3.3,0.4 -1.1,0.2 -2.2,0.7 -3.2,1.3 -1,0.6 -2,1.5 -2.8,2.6 -0.8,1.1 -1.5,2.4 -2.1,4.1 -0.1,0.4 -0.2,1 -0.4,1.6 -0.2,0.6 -0.3,1.3 -0.5,2 -0.2,0.7 -0.3,1.4 -0.4,2 -0.1,0.7 -0.2,1.2 -0.2,1.5 -0.2,1.6 -0.1,3 0.3,4.1 0.4,1.1 0.9,1.9 1.7,2.6 0.8,0.6 1.7,1.1 2.7,1.3 1,0.2 2.1,0.4 3.2,0.4 1.1,0 2.2,-0.1 3.3,-0.4 1.1,-0.2 2.2,-0.7 3.2,-1.3 1,-0.6 2,-1.5 2.8,-2.6 0.8,-1.1 1.5,-2.4 2,-4.1 0.1,-0.4 0.2,-0.9 0.4,-1.5 0.2,-0.7 0.3,-1.3 0.5,-2 0.2,-0.7 0.3,-1.3 0.4,-2 0.1,-0.6 0.2,-1.1 0.2,-1.6"
     clip-path="url(#SVGID_4_)" /><path
     style="fill:#ffffff"
     inkscape:connector-curvature="0"
     id="path182"
     d="m 111.3,123.7 h 10.1 c 0.6,0 1,0.2 1.3,0.6 0.3,0.4 0.4,0.9 0.3,1.5 l -0.6,2.5 c -0.1,0.6 -0.4,1.1 -0.9,1.5 -0.5,0.4 -1,0.6 -1.6,0.6 h -10.1 l -6.9,32.3 c -0.1,0.6 -0.4,1.1 -0.9,1.5 -0.5,0.4 -1,0.6 -1.6,0.6 h -2.9 c -0.6,0 -1,-0.2 -1.4,-0.6 -0.3,-0.4 -0.5,-0.9 -0.4,-1.5 l 6.9,-32.3 H 96 c -0.6,0 -1,-0.2 -1.4,-0.6 -0.3,-0.4 -0.5,-0.9 -0.4,-1.5 l 0.6,-2.5 c 0.1,-0.6 0.4,-1.1 1,-1.5 0.5,-0.4 1.1,-0.6 1.7,-0.6 h 6.7 l 0.9,-4 c 0.5,-2.2 1.1,-4.2 1.9,-5.9 0.8,-1.7 1.8,-3.1 3.1,-4.2 1.2,-1.1 2.8,-2 4.6,-2.5 1.8,-0.6 3.9,-0.8 6.4,-0.8 h 5 c 0.6,0 1,0.2 1.3,0.6 0.3,0.4 0.4,0.9 0.3,1.5 l -0.6,2.5 c -0.1,0.6 -0.4,1.1 -0.9,1.5 -0.5,0.4 -1,0.6 -1.6,0.6 h -4.2 c -1.6,0 -2.9,0.2 -3.9,0.5 -1,0.3 -1.8,0.8 -2.3,1.5 -0.6,0.6 -1,1.4 -1.3,2.3 -0.3,0.9 -0.5,1.8 -0.7,2.8 z"
     clip-path="url(#SVGID_4_)" /><path
     style="fill:#ffffff"
     inkscape:connector-curvature="0"
     id="path184"
     d="m 141.3,122.9 c 1.6,0 3.1,0.2 4.4,0.5 1.3,0.3 2.4,0.8 3.3,1.3 0.9,0.5 1.7,1.1 2.3,1.7 0.6,0.6 1.1,1.2 1.4,1.8 l 0.5,-2.5 c 0.1,-0.6 0.4,-1.1 0.9,-1.5 0.5,-0.4 1,-0.6 1.6,-0.6 h 2.9 c 0.6,0 1,0.2 1.4,0.6 0.3,0.4 0.5,0.9 0.4,1.5 l -7.9,37 c -0.1,0.6 -0.4,1.1 -0.9,1.5 -0.5,0.4 -1,0.6 -1.6,0.6 h -3 c -0.6,0 -1,-0.2 -1.4,-0.6 -0.3,-0.4 -0.5,-0.9 -0.4,-1.5 l 0.6,-2.5 c -1.3,1.5 -2.8,2.8 -4.7,3.9 -1.9,1 -4.4,1.5 -7.7,1.5 -2.5,0 -4.7,-0.5 -6.7,-1.4 -2,-1 -3.6,-2.3 -4.8,-4 -1.2,-1.7 -2.1,-3.8 -2.6,-6.2 -0.5,-2.4 -0.5,-5.1 0,-8 0.1,-0.8 0.3,-1.7 0.5,-2.6 0.2,-0.9 0.4,-1.8 0.6,-2.6 1.5,-5.9 4.1,-10.3 7.8,-13.4 3.8,-3 8.1,-4.5 13.1,-4.5 m 7.2,24.8 c 0.2,-0.8 0.4,-1.8 0.7,-3.1 0.3,-1.3 0.5,-2.3 0.6,-3.1 0.6,-3.8 0.2,-6.7 -1.3,-8.7 -1.5,-2 -3.9,-3.1 -7.3,-3.1 -3.5,0 -6.4,1.1 -8.8,3.3 -2.4,2.2 -4,5.2 -5,9 -0.3,0.8 -0.5,1.5 -0.6,2.2 -0.1,0.7 -0.3,1.4 -0.4,2.2 -0.6,3.8 -0.3,6.8 1.1,9 1.4,2.2 3.6,3.3 6.7,3.3 1.6,0 3.2,-0.3 4.7,-0.8 1.5,-0.5 2.9,-1.3 4.2,-2.3 1.3,-1 2.4,-2.2 3.3,-3.5 0.9,-1.2 1.6,-2.7 2.1,-4.4"
     clip-path="url(#SVGID_4_)" /><path
     style="fill:#ffffff"
     inkscape:connector-curvature="0"
     id="path186"
     d="m 189.7,123.7 c 0.6,0 1,0.2 1.3,0.6 0.3,0.4 0.4,0.9 0.3,1.5 l -0.6,2.5 c -0.1,0.6 -0.4,1.1 -0.9,1.5 -0.5,0.4 -1,0.6 -1.6,0.6 h -3.8 c -3,0 -5.6,0.8 -7.7,2.3 -2.1,1.5 -3.5,3.8 -4.2,6.8 l -4.9,23.2 c -0.1,0.6 -0.4,1.1 -0.9,1.5 -0.5,0.4 -1,0.6 -1.6,0.6 h -2.9 c -0.6,0 -1,-0.2 -1.4,-0.6 -0.3,-0.4 -0.5,-0.9 -0.4,-1.5 l 7.9,-37 c 0.1,-0.6 0.4,-1.1 1,-1.5 0.5,-0.4 1.1,-0.6 1.7,-0.6 h 2.9 c 0.6,0 1,0.2 1.4,0.6 0.3,0.4 0.4,0.9 0.3,1.5 l -0.5,2.5 c 1.4,-1.6 2.8,-2.8 4.4,-3.5 1.5,-0.7 3.5,-1.1 5.9,-1.1 h 4.3 z"
     clip-path="url(#SVGID_4_)" /><path
     style="fill:#ffffff"
     inkscape:connector-curvature="0"
     id="path188"
     d="m 245.8,162.8 c -0.1,0.6 -0.4,1.1 -0.9,1.5 -0.5,0.4 -1,0.6 -1.6,0.6 h -2.9 c -0.6,0 -1,-0.2 -1.4,-0.6 -0.3,-0.4 -0.5,-0.9 -0.4,-1.5 l 4.4,-21 c 0.8,-4 0.6,-7.1 -0.6,-9.1 -1.3,-2 -3.2,-3.1 -5.9,-3.1 -1.9,0 -3.5,0.3 -4.9,0.8 -1.4,0.5 -2.5,1.3 -3.5,2.3 -1,1 -1.7,2.3 -2.4,3.8 -0.6,1.5 -1.2,3.3 -1.6,5.3 l -4.5,21 c -0.1,0.6 -0.4,1.1 -0.9,1.5 -0.5,0.4 -1,0.6 -1.6,0.6 h -2.9 c -0.6,0 -1,-0.2 -1.4,-0.6 -0.3,-0.4 -0.5,-0.9 -0.4,-1.5 l 4.4,-21 c 0.9,-4.1 0.8,-7.1 -0.2,-9.1 -1.1,-2 -2.9,-3 -5.6,-3 -3.8,0 -6.6,1 -8.6,3 -2,2 -3.4,5.1 -4.3,9.1 l -4.4,21 c -0.1,0.6 -0.4,1.1 -0.9,1.5 -0.5,0.4 -1,0.6 -1.6,0.6 h -2.9 c -0.6,0 -1,-0.2 -1.4,-0.6 -0.3,-0.4 -0.5,-0.9 -0.4,-1.5 l 7.9,-37 c 0.1,-0.6 0.4,-1.1 1,-1.5 0.5,-0.4 1.1,-0.6 1.7,-0.6 h 2.9 c 0.6,0 1,0.2 1.3,0.6 0.3,0.4 0.4,0.9 0.3,1.5 l -0.5,2.5 c 1,-1.4 2.3,-2.7 4,-3.8 1.7,-1.1 4,-1.6 6.9,-1.6 3.1,0 5.6,0.6 7.7,1.8 2.1,1.2 3.5,3 4.4,5.2 1.8,-2.4 3.8,-4.2 6,-5.4 2.2,-1.1 4.6,-1.7 7.3,-1.7 2.5,0 4.7,0.4 6.6,1.2 1.9,0.8 3.4,2 4.6,3.5 1.2,1.5 1.9,3.4 2.3,5.6 0.4,2.2 0.3,4.7 -0.3,7.5 z"
     clip-path="url(#SVGID_4_)" /><path
     style="fill:#ffffff"
     inkscape:connector-curvature="0"
     id="path190"
     d="m 276.8,122.9 c 1.6,0 3.1,0.2 4.4,0.5 1.3,0.3 2.4,0.8 3.3,1.3 0.9,0.5 1.7,1.1 2.3,1.7 0.6,0.6 1.1,1.2 1.4,1.8 l 0.5,-2.5 c 0.1,-0.6 0.4,-1.1 0.9,-1.5 0.5,-0.4 1,-0.6 1.6,-0.6 h 2.9 c 0.6,0 1,0.2 1.4,0.6 0.3,0.4 0.5,0.9 0.4,1.5 l -7.9,37 c -0.1,0.6 -0.4,1.1 -0.9,1.5 -0.5,0.4 -1,0.6 -1.6,0.6 h -2.9 c -0.6,0 -1,-0.2 -1.4,-0.6 -0.3,-0.4 -0.5,-0.9 -0.4,-1.5 l 0.6,-2.5 c -1.3,1.5 -2.8,2.8 -4.7,3.9 -1.9,1 -4.4,1.5 -7.7,1.5 -2.5,0 -4.7,-0.5 -6.7,-1.4 -2,-1 -3.6,-2.3 -4.8,-4 -1.2,-1.7 -2.1,-3.8 -2.6,-6.2 -0.5,-2.4 -0.5,-5.1 0,-8 0.1,-0.8 0.3,-1.7 0.5,-2.6 0.2,-0.9 0.4,-1.8 0.6,-2.6 1.5,-5.9 4.1,-10.3 7.8,-13.4 3.7,-3 8,-4.5 13,-4.5 m 7.2,24.8 c 0.2,-0.8 0.4,-1.8 0.7,-3.1 0.3,-1.3 0.5,-2.3 0.6,-3.1 0.6,-3.8 0.2,-6.7 -1.3,-8.7 -1.5,-2 -3.9,-3.1 -7.3,-3.1 -3.5,0 -6.4,1.1 -8.8,3.3 -2.4,2.2 -4,5.2 -5,9 -0.3,0.8 -0.5,1.5 -0.6,2.2 -0.1,0.7 -0.3,1.4 -0.4,2.2 -0.6,3.8 -0.3,6.8 1.1,9 1.4,2.2 3.6,3.3 6.7,3.3 1.6,0 3.2,-0.3 4.7,-0.8 1.5,-0.5 2.9,-1.3 4.2,-2.3 1.3,-1 2.4,-2.2 3.3,-3.5 0.9,-1.2 1.6,-2.7 2.1,-4.4"
     clip-path="url(#SVGID_4_)" /></g>
</svg>